<?xml version="1.0" encoding="UTF-8" standalone="no"?>
<svg xmlns="http://www.w3.org/2000/svg" xmlns:xlink="http://www.w3.org/1999/xlink" contentStyleType="text/css" height="607px" preserveAspectRatio="none" style="width:664px;height:607px;background:#FFFFFF;" version="1.1" viewBox="0 0 664 607" width="664px" zoomAndPan="magnify"><defs/><g><!--MD5=[23264546ff586552c7c87bd6cd64b20d]
entity nologged_user--><g id="elem_nologged_user"><ellipse cx="335" cy="422" fill="#F1F1F1" rx="8" ry="8" style="stroke:#181818;stroke-width:0.5;"/><path d="M335,430 L335,457 M322,438 L348,438 M335,457 L322,472 M335,457 L348,472 " fill="none" style="stroke:#181818;stroke-width:0.5;"/><text fill="#000000" font-family="sans-serif" font-size="14" lengthAdjust="spacing" textLength="116" x="277" y="486.4951">Not-logged User</text></g><g id="elem_Register"><ellipse cx="603.0868" cy="451.7397" fill="#F1F1F1" rx="55.5868" ry="14.7397" style="stroke:#181818;stroke-width:0.5;"/><text fill="#000000" font-family="sans-serif" font-size="14" lengthAdjust="spacing" textLength="61" x="569.5868" y="455.4873">Register</text></g><g id="elem_Log in"><ellipse cx="470.1531" cy="451.6013" fill="#F1F1F1" rx="42.1531" ry="14.6013" style="stroke:#181818;stroke-width:0.5;"/><text fill="#000000" font-family="sans-serif" font-size="14" lengthAdjust="spacing" textLength="43" x="445.6531" y="455.3489">Log in</text></g><g id="elem_Monitoring of\nmaterial statistics"><ellipse cx="223.9092" cy="575.5473" fill="#F1F1F1" rx="103.4092" ry="26.0473" style="stroke:#181818;stroke-width:0.5;"/><text fill="#000000" font-family="sans-serif" font-size="14" lengthAdjust="spacing" textLength="97" x="175.4092" y="570.2455">Monitoring of</text><text fill="#000000" font-family="sans-serif" font-size="14" lengthAdjust="spacing" textLength="130" x="158.9092" y="586.5424">material statistics</text></g><g id="elem_Monitoring of\nmaterial price"><ellipse cx="445.9031" cy="575.5473" fill="#F1F1F1" rx="82.9031" ry="26.0473" style="stroke:#181818;stroke-width:0.5;"/><text fill="#000000" font-family="sans-serif" font-size="14" lengthAdjust="spacing" textLength="97" x="397.4031" y="570.2455">Monitoring of</text><text fill="#000000" font-family="sans-serif" font-size="14" lengthAdjust="spacing" textLength="101" x="395.4031" y="586.5424">material price</text></g><g id="elem_Access to\nunauthorized section"><ellipse cx="124.2474" cy="451.5495" fill="#F1F1F1" rx="118.2474" ry="26.0495" style="stroke:#181818;stroke-width:0.5;"/><text fill="#000000" font-family="sans-serif" font-size="14" lengthAdjust="spacing" textLength="69" x="89.7474" y="446.2477">Access to</text><text fill="#000000" font-family="sans-serif" font-size="14" lengthAdjust="spacing" textLength="151" x="48.7474" y="462.5446">unauthorized section</text></g><!--MD5=[7f3fc1eb1c1a3f20b3b14c26275b463c]
entity logged_user--><g id="elem_logged_user"><ellipse cx="335" cy="286" fill="#F1F1F1" rx="8" ry="8" style="stroke:#181818;stroke-width:0.5;"/><path d="M335,294 L335,321 M322,302 L348,302 M335,321 L322,336 M335,321 L348,336 " fill="none" style="stroke:#181818;stroke-width:0.5;"/><text fill="#000000" font-family="sans-serif" font-size="14" lengthAdjust="spacing" textLength="87" x="291.5" y="350.4951">Logged user</text></g><g id="elem_Tracking of their collection"><ellipse cx="528.2303" cy="315.7461" fill="#F1F1F1" rx="114.2303" ry="25.2461" style="stroke:#181818;stroke-width:0.5;"/><text fill="#000000" font-family="sans-serif" font-size="14" lengthAdjust="spacing" textLength="195" x="430.7303" y="318.5927">Tracking of their collection</text></g><g id="elem_Changing their details"><ellipse cx="158.7599" cy="315.352" fill="#F1F1F1" rx="97.2599" ry="21.852" style="stroke:#181818;stroke-width:0.5;"/><text fill="#000000" font-family="sans-serif" font-size="14" lengthAdjust="spacing" textLength="158" x="79.7599" y="318.1987">Changing their details</text></g><!--MD5=[cade383c679c4100475c230cbe0e5423]
entity Employee--><g id="elem_Employee"><ellipse cx="335" cy="150" fill="#F1F1F1" rx="8" ry="8" style="stroke:#181818;stroke-width:0.5;"/><path d="M335,158 L335,185 M322,166 L348,166 M335,185 L322,200 M335,185 L348,200 " fill="none" style="stroke:#181818;stroke-width:0.5;"/><text fill="#000000" font-family="sans-serif" font-size="14" lengthAdjust="spacing" textLength="72" x="299" y="214.4951">Employee</text></g><g id="elem_Confirmation of\ncustomer registration"><ellipse cx="526.888" cy="179.4776" fill="#F1F1F1" rx="120.388" ry="26.4776" style="stroke:#181818;stroke-width:0.5;"/><text fill="#000000" font-family="sans-serif" font-size="14" lengthAdjust="spacing" textLength="114" x="469.888" y="174.1759">Confirmation of</text><text fill="#000000" font-family="sans-serif" font-size="14" lengthAdjust="spacing" textLength="157" x="448.388" y="190.4727">customer registration</text></g><g id="elem_Tracking of their\ncollection history"><ellipse cx="163.8737" cy="179.5473" fill="#F1F1F1" rx="99.8737" ry="26.0473" style="stroke:#181818;stroke-width:0.5;"/><text fill="#000000" font-family="sans-serif" font-size="14" lengthAdjust="spacing" textLength="120" x="103.7916" y="174.2651">Tracking of their</text><text fill="#000000" font-family="sans-serif" font-size="14" lengthAdjust="spacing" textLength="125" x="101.2916" y="190.5619">collection history</text></g><!--MD5=[97ab183161fd5d1db7fba7485cf76add]
entity Admin--><g id="elem_Admin"><ellipse cx="335" cy="14" fill="#F1F1F1" rx="8" ry="8" style="stroke:#181818;stroke-width:0.5;"/><path d="M335,22 L335,49 M322,30 L348,30 M335,49 L322,64 M335,49 L348,64 " fill="none" style="stroke:#181818;stroke-width:0.5;"/><text fill="#000000" font-family="sans-serif" font-size="14" lengthAdjust="spacing" textLength="46" x="312" y="78.4951">Admin</text></g><g id="elem_Managing users"><ellipse cx="469.1676" cy="43.6335" fill="#F1F1F1" rx="76.1676" ry="17.6335" style="stroke:#181818;stroke-width:0.5;"/><text fill="#000000" font-family="sans-serif" font-size="14" lengthAdjust="spacing" textLength="109" x="411.6676" y="47.3811">Managing users</text></g><g id="elem_Adjustment of price list"><ellipse cx="174.2042" cy="43.4408" fill="#F1F1F1" rx="102.7042" ry="22.9408" style="stroke:#181818;stroke-width:0.5;"/><text fill="#000000" font-family="sans-serif" font-size="14" lengthAdjust="spacing" textLength="170" x="89.2042" y="46.2875">Adjustment of price list</text></g><!--MD5=[dfb34cebc2028341209daa32aa1c2c74]
link nologged_user to Register--><g id="link_nologged_user_Register"><path d="M375.581,413.436 C390.97,401.441 409.412,389.707 428.5,383.5 C464.003,371.955 477.088,371.679 512.5,383.5 C541.962,393.335 569.54,416.944 586.331,433.572 " fill="none" id="nologged_user-to-Register" style="stroke:#181818;stroke-width:1.0;"/><polygon fill="#181818" points="589.951,437.215,586.4433,428.0119,586.4262,433.6688,580.7694,433.6516,589.951,437.215" style="stroke:#181818;stroke-width:1.0;"/></g><!--MD5=[2f785cfa8c58373a914370716949f050]
link nologged_user to Log in--><g id="link_nologged_user_Log in"><path d="M393.008,451.5 C402.911,451.5 412.814,451.5 422.716,451.5 " fill="none" id="nologged_user-to-Log in" style="stroke:#181818;stroke-width:1.0;"/><polygon fill="#181818" points="427.895,451.5,418.895,447.5,422.895,451.5,418.895,455.5,427.895,451.5" style="stroke:#181818;stroke-width:1.0;"/></g><!--MD5=[02834a62d8812412ddd4bfe640f3c86a]
link nologged_user to Monitoring of\nmaterial statistics--><g id="link_nologged_user_Monitoring of\nmaterial statistics"><path d="M301.093,489.767 C284.615,507.8778 265.129,529.2955 249.87,546.0665 " fill="none" id="nologged_user-to-Monitoring of\nmaterial statistics" style="stroke:#181818;stroke-width:1.0;"/><polygon fill="#181818" points="246.483,549.7885,255.4983,545.8231,249.8477,546.0901,249.5808,540.4395,246.483,549.7885" style="stroke:#181818;stroke-width:1.0;"/></g><!--MD5=[ea5d4a0f78d3b7361c610cb271eea2d3]
link nologged_user to Monitoring of\nmaterial price--><g id="link_nologged_user_Monitoring of\nmaterial price"><path d="M368.907,489.767 C385.503,508.0081 405.152,529.6038 420.459,546.4277 " fill="none" id="nologged_user-to-Monitoring of\nmaterial price" style="stroke:#181818;stroke-width:1.0;"/><polygon fill="#181818" points="423.854,550.1595,420.7562,540.8105,420.4893,546.4611,414.8387,546.1941,423.854,550.1595" style="stroke:#181818;stroke-width:1.0;"/></g><!--MD5=[23168a378bf754fa30ee49d54a2ff04c]
reverse link Access to\nunauthorized section to nologged_user--><g id="link_Access to\nunauthorized section_nologged_user"><path d="M247.383,451.5 C257.15,451.5 266.918,451.5 276.685,451.5 " fill="none" id="Access to\nunauthorized section-backto-nologged_user" style="stroke:#181818;stroke-width:1.0;"/><polygon fill="#181818" points="242.275,451.5,251.275,455.5,247.275,451.5,251.275,447.5,242.275,451.5" style="stroke:#181818;stroke-width:1.0;"/></g><!--MD5=[6ec5ba4871a6adfa36ae7f5cb67c658a]
link logged_user to nologged_user--><g id="link_logged_user_nologged_user"><path d="M335,353.826 C335,366.023 335,379.864 335,393.184 " fill="none" id="logged_user-to-nologged_user" style="stroke:#181818;stroke-width:1.0;"/><polygon fill="none" points="342,393.374,335,413.374,328,393.374,342,393.374" style="stroke:#181818;stroke-width:1.0;"/></g><!--MD5=[1416a0deeae90962e38bbd4dd647880c]
link logged_user to Tracking of their collection--><g id="link_logged_user_Tracking of their collection"><path d="M378.727,315.5 C388.657,315.5 398.588,315.5 408.519,315.5 " fill="none" id="logged_user-to-Tracking of their collection" style="stroke:#181818;stroke-width:1.0;"/><polygon fill="#181818" points="413.713,315.5,404.713,311.5,408.713,315.5,404.713,319.5,413.713,315.5" style="stroke:#181818;stroke-width:1.0;"/></g><!--MD5=[4d6ce7b31b143dc46d916b1d3f5c5302]
reverse link Changing their details to logged_user--><g id="link_Changing their details_logged_user"><path d="M261.76,315.5 C271.58,315.5 281.4,315.5 291.22,315.5 " fill="none" id="Changing their details-backto-logged_user" style="stroke:#181818;stroke-width:1.0;"/><polygon fill="#181818" points="256.625,315.5,265.625,319.5,261.625,315.5,265.625,311.5,256.625,315.5" style="stroke:#181818;stroke-width:1.0;"/></g><!--MD5=[37d5a04e72f157c2b0ace515840a401f]
link Employee to logged_user--><g id="link_Employee_logged_user"><path d="M335,217.826 C335,230.023 335,243.864 335,257.184 " fill="none" id="Employee-to-logged_user" style="stroke:#181818;stroke-width:1.0;"/><polygon fill="none" points="342,257.374,335,277.374,328,257.374,342,257.374" style="stroke:#181818;stroke-width:1.0;"/></g><!--MD5=[e59142f85cdbe7f910c5732fbd8bb3ae]
link Employee to Confirmation of\ncustomer registration--><g id="link_Employee_Confirmation of\ncustomer registration"><path d="M371.375,179.5 C381.297,179.5 391.219,179.5 401.141,179.5 " fill="none" id="Employee-to-Confirmation of\ncustomer registration" style="stroke:#181818;stroke-width:1.0;"/><polygon fill="#181818" points="406.33,179.5,397.33,175.5,401.33,179.5,397.33,183.5,406.33,179.5" style="stroke:#181818;stroke-width:1.0;"/></g><!--MD5=[f75d8d64b46aeb4e85bbce93d2641b75]
reverse link Tracking of their\ncollection history to Employee--><g id="link_Tracking of their\ncollection history_Employee"><path d="M269.327,179.5 C279.141,179.5 288.954,179.5 298.768,179.5 " fill="none" id="Tracking of their\ncollection history-backto-Employee" style="stroke:#181818;stroke-width:1.0;"/><polygon fill="#181818" points="264.195,179.5,273.195,183.5,269.195,179.5,273.195,175.5,264.195,179.5" style="stroke:#181818;stroke-width:1.0;"/></g><!--MD5=[e6b253b588892f992f90e4845b74fe0b]
link Admin to Employee--><g id="link_Admin_Employee"><path d="M335,81.826 C335,94.023 335,107.864 335,121.184 " fill="none" id="Admin-to-Employee" style="stroke:#181818;stroke-width:1.0;"/><polygon fill="none" points="342,121.374,335,141.374,328,121.374,342,121.374" style="stroke:#181818;stroke-width:1.0;"/></g><!--MD5=[3e7b9ed1f951990c399e53e00a1b94a6]
link Admin to Managing users--><g id="link_Admin_Managing users"><path d="M358.031,43.5 C367.875,43.5 377.718,43.5 387.562,43.5 " fill="none" id="Admin-to-Managing users" style="stroke:#181818;stroke-width:1.0;"/><polygon fill="#181818" points="392.709,43.5,383.709,39.5,387.709,43.5,383.709,47.5,392.709,43.5" style="stroke:#181818;stroke-width:1.0;"/></g><!--MD5=[d49a6b12bbbe00395af749834b9e8700]
reverse link Adjustment of price list to Admin--><g id="link_Adjustment of price list_Admin"><path d="M281.734,43.5 C291.722,43.5 301.709,43.5 311.696,43.5 " fill="none" id="Adjustment of price list-backto-Admin" style="stroke:#181818;stroke-width:1.0;"/><polygon fill="#181818" points="276.512,43.5,285.512,47.5,281.512,43.5,285.512,39.5,276.512,43.5" style="stroke:#181818;stroke-width:1.0;"/></g><!--MD5=[eb509a419e8ffed368ee3cbcdf37f49a]
@startuml
"Not-logged User" as nologged_user
nologged_user -right-> (Register)
nologged_user -right-> (Log in)
nologged_user - -> (Monitoring of\nmaterial statistics)
nologged_user- -> (Monitoring of\nmaterial price)
nologged_user-left-> (Access to\nunauthorized section)

"Logged user" as logged_user
logged_user - -|> nologged_user
logged_user -> (Tracking of their collection)
logged_user -left-> (Changing their details)

Employee - -|> logged_user
Employee -> (Confirmation of\ncustomer registration)
Employee -left-> (Tracking of their\ncollection history)

Admin - -|> Employee
Admin -> (Managing users)
Admin -left-> (Adjustment of price list)
@enduml

PlantUML version 1.2022.13beta2(Unknown compile time)
(GPL source distribution)
Java Runtime: Java(TM) SE Runtime Environment
JVM: Java HotSpot(TM) 64-Bit Server VM
Default Encoding: UTF-8
Language: en
Country: US
--></g></svg>